<?xml version="1.0" encoding="utf-8"?>
<!-- Generator: Adobe Illustrator 23.1.1, SVG Export Plug-In . SVG Version: 6.00 Build 0)  -->
<svg version="1.1" id="Layer_1" xmlns="http://www.w3.org/2000/svg" xmlns:xlink="http://www.w3.org/1999/xlink" x="0px" y="0px"
	 viewBox="0 0 155.9 32.2" style="enable-background:new 0 0 155.9 32.2;" xml:space="preserve">
<style type="text/css">
	.st0{display:none;fill:#C9874A;}
	.st1{fill:#5F6B2E;}
	.st2{font-family:'Saira-Bold';}
	.st3{font-size:24px;}
	.st4{fill:#C9874A;}
</style>
<path class="st0" d="M24.6,0.8l-9.7,11.3L11.5,16l-5.7,6.7V9.5l4.2,4.9l3.4-3.9L5.3,0.8L0.8,2.5v27.2l4.5,1.7L15,20.1l3.4-3.9
	L24,9.5v13.3l-4.2-4.9l-3.4,3.9l8.2,9.6l4.5-1.7V2.5L24.6,0.8z"/>
<text transform="matrix(1 0 0 1 33.6678 23.1941)" class="st1 st2 st3">Farm</text>
<text transform="matrix(1 0 0 1 91.2594 23.2529)" class="st4 st2 st3">Lord</text>
<image style="overflow:visible;" width="110" height="112" xlink:href="logo-ic.png"  transform="matrix(0.2761 0 0 0.2761 3.768 0.6372)">
</image>
</svg>
