<svg xmlns="http://www.w3.org/2000/svg" xmlns:xlink="http://www.w3.org/1999/xlink" style="isolation:isolate" viewBox="0 0 12.32 12.32" width="12.32" height="12.32"><defs><clipPath id="_clipPath_xGPb61yLIUS2R1Tn4MAGkcC7ZFhvrYF8"><rect width="12.32" height="12.32"/></clipPath></defs><g clip-path="url(#_clipPath_xGPb61yLIUS2R1Tn4MAGkcC7ZFhvrYF8)"><g><g><path d=" M 6.32 1 C 5.392 0.999 4.501 1.368 3.844 2.024 C 3.188 2.68 2.819 3.571 2.82 4.5 C 2.82 7.129 6.32 10.999 6.32 10.999 C 6.32 10.999 9.82 7.124 9.82 4.5 C 9.82 3.571 9.451 2.681 8.795 2.024 C 8.139 1.368 7.248 0.999 6.32 1 L 6.32 1 Z  M 6.32 5.75 C 5.814 5.75 5.358 5.445 5.165 4.978 C 4.971 4.511 5.078 3.973 5.436 3.615 C 5.794 3.258 6.331 3.151 6.798 3.344 C 7.266 3.538 7.57 3.994 7.57 4.5 C 7.57 5.19 7.01 5.75 6.32 5.75 L 6.32 5.75 Z " fill="rgb(227,227,227)"/><path d=" M 0.32 0 L 12.32 0 L 12.32 12 L 0.32 12 L 0.32 0 Z " fill="none"/></g></g></g></svg>